# xmcd
#
# Track frame offsets:
#	150
#	8510
#	21470
#	32012
#	42875
#	53767
#	65472
#	76227
#	86005
#	97970
#	111252
#	123582
#	137047
#	149257
#	159005
#	172675
#
# Disc length: 2467 seconds
#
# Revision: 1
# Processed by: cddbd v1.5PL3 Copyright (c) Steve Scherf et al.
# Submitted via: audiograbber 1.83.01
#
DISCID=c009a110
DTITLE=Various Artist - Country Hits No. 1
DYEAR=1900
DGENRE=Country
TTITLE0=Roger Miller - Dang me
TTITLE1=Bobby Helms - Fraulein
TTITLE2=Conny Smith - Once a day
TTITLE3=Buck Owens - Together again
TTITLE4=Elvis Presley - Jailhouse rock
TTITLE5=Porter Wagoner - Misery loves company
TTITLE6=Jim Reeves - He'll have to go
TTITLE7=The Everly Brothers - Bird dog
TTITLE8=Kitty Wells - It wasn't god who make honky tonk angels
TTITLE9=Hank Locklin - Please help me I'm falling
TTITLE10=Hank Williams - Love sick blues
TTITLE11=Patsy Cline - She's got you
TTITLE12=Jack Greene - All the time
TTITLE13=Buck Owens - I don't care
TTITLE14=Ray Price - City lights
TTITLE15=Bill Anderson - Still
EXTD=ID3G: 2
EXTT0=
EXTT1=
EXTT2=
EXTT3=
EXTT4=
EXTT5=
EXTT6=
EXTT7=
EXTT8=
EXTT9=
EXTT10=
EXTT11=
EXTT12=
EXTT13=
EXTT14=
EXTT15=
PLAYORDER=
